<?xml version="1.0" encoding="UTF-8"?>
<svg width="500px" height="500px" viewBox="0 0 500 500" version="1.1" xmlns="http://www.w3.org/2000/svg" xmlns:xlink="http://www.w3.org/1999/xlink">
    <title>favicon</title>
    <g id="favicon" stroke="none" stroke-width="1" fill="none" fill-rule="evenodd">
        <g id="Favicon-Copy" transform="translate(28.2142, 28.7222)" fill="#000000" fill-rule="nonzero">
            <g id="Group" transform="translate(-0, -0)">
                <path d="M221.777778,0 C99.2882051,0 0,99.2882051 0,221.777778 C0,344.26735 99.2882051,443.555556 221.777778,443.555556 C344.26735,443.555556 443.555556,344.26735 443.555556,221.777778 C443.555556,99.2882051 344.26735,0 221.777778,0 Z M133.994295,121.913803 L245.949423,197.616795 C261.32728,208.692245 264.955708,230.066657 254.09423,245.596383 C243.232753,261.126109 221.910626,265.050124 206.232009,254.404701 C202.921751,252.070207 200.036588,249.185044 197.702094,245.874786 L121.999103,133.919658 C119.593843,130.474057 120.006196,125.799555 122.977512,122.828238 C125.948828,119.856922 130.623331,119.444569 134.068932,121.849829 L133.994295,121.913803 Z M221.777778,409.435897 C118.352564,409.435897 34.1185281,325.256303 34.1185281,221.777778 C33.9420592,170.771823 54.7059857,121.928222 91.5579701,86.6639316 C95.417796,82.8159558 101.052917,81.3488673 106.299148,82.8261062 C111.545379,84.303345 115.587041,88.4952314 116.871921,93.7918585 C118.156801,99.0884855 116.485127,104.666339 112.49891,108.383226 C81.5750719,137.981748 64.1498827,178.971991 64.2942308,221.777778 C64.2942308,308.612308 134.943248,379.261325 221.777778,379.261325 C308.612308,379.261325 379.261325,308.612308 379.261325,221.777778 C379.261325,140.029209 316.651752,72.6322222 236.865064,65.0405983 L236.865064,123.683761 C236.865064,132.016239 230.110256,138.771047 221.777778,138.771047 C213.4453,138.771047 206.690491,132.016239 206.690491,123.683761 L206.690491,49.2069444 C206.690491,40.8744663 213.4453,34.1196581 221.777778,34.1196581 C325.256303,34.1196581 409.435897,118.352564 409.435897,221.777778 C409.435897,325.202991 325.256303,409.435897 221.777778,409.435897 Z" id="Shape"></path>
            </g>
        </g>
    </g>
</svg>