<?xml version="1.0" encoding="UTF-8"?>
<svg width="180px" height="180px" viewBox="0 0 180 180" version="1.1" xmlns="http://www.w3.org/2000/svg" xmlns:xlink="http://www.w3.org/1999/xlink">
    <title>safari-pinned-tab</title>
    <g id="safari-pinned-tab" stroke="none" stroke-width="1" fill="none" fill-rule="evenodd">
        <g id="Favicon" transform="translate(10, 10)" fill="#000000" fill-rule="nonzero">
            <g id="Group">
                <path d="M80,0 C35.8153846,0 0,35.8153846 0,80 C0,124.184615 35.8153846,160 80,160 C124.184615,160 160,124.184615 160,80 C160,35.8153846 124.184615,0 80,0 Z M48.3346154,43.9769231 L88.7192308,71.2846154 C94.2663536,75.2797678 95.5752052,82.9899763 91.6572373,88.5918815 C87.7392695,94.1937867 80.0479214,95.609263 74.3923077,91.7692308 C73.1982268,90.9271286 72.1574867,89.8863886 71.3153846,88.6923077 L44.0076923,48.3076923 C43.1400636,47.0647901 43.288808,45.3785969 44.3606255,44.3067794 C45.432443,43.2349619 47.1186363,43.0862174 48.3615385,43.9538462 L48.3346154,43.9769231 Z M80,147.692308 C42.6923077,147.692308 12.3072847,117.326923 12.3072847,80 C12.2436286,61.6010584 19.7336221,43.9821243 33.0269231,31.2615385 C34.4192451,29.8734911 36.4519542,29.3442808 38.3443822,29.8771525 C40.2368102,30.4100242 41.6947243,31.9221276 42.1582079,33.8327345 C42.6216916,35.7433415 42.0186829,37.7553928 40.5807692,39.0961538 C29.4258776,49.7729752 23.1402383,64.5590347 23.1923077,80 C23.1923077,111.323077 48.6769231,136.807692 80,136.807692 C111.323077,136.807692 136.807692,111.323077 136.807692,80 C136.807692,50.5115385 114.223077,26.2 85.4423077,23.4615385 L85.4423077,44.6153846 C85.4423077,47.6210882 83.0057035,50.0576923 80,50.0576923 C76.9942965,50.0576923 74.5576923,47.6210882 74.5576923,44.6153846 L74.5576923,17.75 C74.5576923,14.7442965 76.9942965,12.3076923 80,12.3076923 C117.326923,12.3076923 147.692308,42.6923077 147.692308,80 C147.692308,117.307692 117.326923,147.692308 80,147.692308 Z" id="Shape"></path>
            </g>
        </g>
    </g>
</svg>